<?xml version="1.0" encoding="utf-8"?>
<!-- Generator: Adobe Illustrator 23.0.3, SVG Export Plug-In . SVG Version: 6.00 Build 0)  -->
<svg version="1.1" id="Layer_1" xmlns="http://www.w3.org/2000/svg" xmlns:xlink="http://www.w3.org/1999/xlink" x="0px" y="0px"
	 viewBox="0 0 10 8" style="enable-background:new 0 0 10 8;" xml:space="preserve">
<style type="text/css">
	.st0{fill:#FFFFFF;}
</style>
<path class="st0" d="M10,0C9.6,0.2,8.8,0.5,8.4,0.6l0,0C7.9,0.2,7.4,0,6.8,0C5.5,0,4.5,1,4.5,2.2c0,0.1,0,0.2,0,0.2
	c-1.7,0-3-0.9-3.9-2C0.5,0.6,0.5,1,0.5,1.4c0,0.7,0.5,1.4,1.4,1.8c-0.2,0-0.3,0.1-0.5,0.1C1.1,3.3,0.8,3.2,0.5,3l0,0
	c0,1,1,1.6,2,1.8C2.3,5.1,1.9,5.1,1.7,5.1C1.6,5.1,1.1,5,1,5c0.3,0.8,1.2,1.3,2.1,1.3C2.4,6.8,1.9,7,0.5,7H0c0.9,0.6,2,1,3.2,1
	C6.9,8,9,5.2,9,2.5c0,0,0-0.1,0-0.2l0,0l0,0c0-0.1,0-0.1,0-0.2c0.4-0.3,0.7-0.6,1-1C9.6,1.3,9.2,1.4,8.8,1.4C9.3,1.1,9.8,0.5,10,0z"
	/>
</svg>
