<svg id="_x31_0.Linkedin" xmlns="http://www.w3.org/2000/svg" width="43.896" height="43.896" viewBox="0 0 43.896 43.896">
  <path id="Path_281" data-name="Path 281" d="M66.668,65.314V49.237c0-7.9-1.7-13.937-10.919-13.937a9.527,9.527,0,0,0-8.615,4.719h-.11V36.013H38.3v29.3h9.108V50.773c0-3.841.713-7.517,5.432-7.517,4.664,0,4.719,4.335,4.719,7.737V65.259h9.108Z" transform="translate(-22.772 -21.418)" fill="#fff"/>
  <path id="Path_282" data-name="Path 282" d="M11.3,36.6h9.108V65.9H11.3Z" transform="translate(-10.587 -22.005)" fill="#fff"/>
  <path id="Path_283" data-name="Path 283" d="M15.267,10a5.3,5.3,0,1,0,5.267,5.268A5.269,5.269,0,0,0,15.267,10Z" transform="translate(-10 -10)" fill="#fff"/>
</svg>
